<svg width="115" height="115" viewBox="0 0 115 115" fill="none" xmlns="http://www.w3.org/2000/svg">
<path d="M34.5509 77.1019C34.5509 78.7587 35.8941 80.1019 37.5509 80.1019H77.1019C78.7587 80.1019 80.1019 78.7587 80.1019 77.1019V37.5509C80.1019 35.8941 78.7587 34.5509 77.1019 34.5509H37.5509C35.8941 34.5509 34.5509 35.8941 34.5509 37.5509V77.1019ZM57.3264 114.265C49.4499 114.265 42.0478 112.769 35.1203 109.778C28.1928 106.791 22.1667 102.735 17.0423 97.6105C11.9178 92.486 7.86185 86.46 4.87446 79.5325C1.88329 72.6049 0.387695 65.2029 0.387695 57.3264C0.387695 49.4499 1.88329 42.0478 4.87446 35.1203C7.86185 28.1928 11.9178 22.1667 17.0423 17.0423C22.1667 11.9178 28.1928 7.85995 35.1203 4.86877C42.0478 1.88139 49.4499 0.387695 57.3264 0.387695C65.2029 0.387695 72.6049 1.88139 79.5325 4.86877C86.46 7.85995 92.486 11.9178 97.6105 17.0423C102.735 22.1667 106.791 28.1928 109.778 35.1203C112.769 42.0478 114.265 49.4499 114.265 57.3264C114.265 65.2029 112.769 72.6049 109.778 79.5325C106.791 86.46 102.735 92.486 97.6105 97.6105C92.486 102.735 86.46 106.791 79.5325 109.778C72.6049 112.769 65.2029 114.265 57.3264 114.265ZM57.3264 102.877C70.0427 102.877 80.8136 98.4646 89.6391 89.6391C98.4646 80.8136 102.877 70.0427 102.877 57.3264C102.877 44.6101 98.4646 33.8392 89.6391 25.0137C80.8136 16.1882 70.0427 11.7754 57.3264 11.7754C44.6101 11.7754 33.8392 16.1882 25.0137 25.0137C16.1882 33.8392 11.7754 44.6101 11.7754 57.3264C11.7754 70.0427 16.1882 80.8136 25.0137 89.6391C33.8392 98.4646 44.6101 102.877 57.3264 102.877Z" fill="white"/>
</svg>
