<?xml version="1.0" encoding="UTF-8"?><svg id="Layer_1" xmlns="http://www.w3.org/2000/svg" viewBox="0 0 18.67 18.67"><rect x="0" y="0" width="18.67" height="18.67" rx="6.3" ry="6.3" style="fill:#fff;"/><g><path d="M5.85,12.55l.72-1.56c.55,.45,1.43,1.01,2.7,1.01,.77,0,1.68-.29,1.68-.89s-.86-.77-1.7-1.01c-1.61-.45-2.99-.93-2.99-2.59s1.7-2.56,3.2-2.56c1.27,0,2.11,.33,3.04,.88l-.7,1.55c-.76-.43-1.48-.64-2.32-.64-.64,0-1.27,.29-1.27,.74,0,.58,.7,.72,1.46,.88,1.58,.34,3.23,.98,3.23,2.73,0,1.99-2.04,2.71-3.62,2.71-1.75,0-2.95-.79-3.42-1.24Z" style="fill:#6a6a6a;"/><g><path d="M5.88,7.49c0,.07,0,.13,0,.19l-2.74-2.74c-.05-.19-.08-.41-.08-.65,0-.18,.02-.35,.06-.51,.96,.96,1.92,1.93,2.88,2.89-.09,.25-.13,.53-.13,.82Z" style="fill:#7142f8;"/><path d="M6.66,5.63c-.25,.25-.46,.55-.6,.88-1.42-1.42-2.84-2.85-4.26-4.27,.11-.35,.31-.66,.57-.91,.17,.17,.39,.39,.56,.56,.08,.08,.19,.19,.28,.28,.17,.17,.39,.39,.55,.56,.17,.17,.39,.39,.55,.56,.17,.17,.39,.39,.56,.56,.17,.17,.39,.39,.55,.56,.17,.17,.39,.39,.55,.56,.17,.17,.39,.39,.56,.56,.04,.04,.08,.08,.13,.13Z" style="fill:#3e89f9;"/><path d="M7.71,4.92c-.34,.15-.66,.35-.93,.59l-2.02-2.03c.27-.24,.6-.43,.95-.57l2,2Z" style="fill:#ff4d6f;"/><path d="M8.92,4.58c-.36,.05-.72,.14-1.05,.27L4.46,1.42c.36-.12,.74-.19,1.11-.21l3.36,3.37Z" style="fill:#379d76;"/></g></g></svg>