<svg width="513" height="513" viewBox="0 0 513 513" fill="none" xmlns="http://www.w3.org/2000/svg">
<rect x="0.520508" y="0.0509033" width="512" height="512" fill="#D2ECFF"/>
<path d="M396.191 130.488L382.085 116.381L116.852 381.614L130.958 395.721L150.911 375.768H356.286C361.575 375.76 366.646 373.655 370.386 369.915C374.126 366.175 376.231 361.105 376.239 355.815V150.44L396.191 130.488ZM356.286 355.815H170.864L248.61 278.069L272.344 301.803C276.086 305.543 281.16 307.645 286.451 307.645C291.742 307.645 296.816 305.543 300.557 301.803L316.38 285.98L356.286 325.856V355.815ZM356.286 297.633L330.487 271.834C326.745 268.093 321.671 265.992 316.38 265.992C311.089 265.992 306.015 268.093 302.273 271.834L286.451 287.656L262.737 263.942L356.286 170.393V297.633ZM156.757 315.909V285.98L206.639 236.128L220.337 249.836L234.464 235.709L220.746 221.991C217.004 218.251 211.93 216.149 206.639 216.149C201.349 216.149 196.274 218.251 192.533 221.991L156.757 257.767V156.287H316.38V136.334H156.757C151.467 136.339 146.395 138.443 142.654 142.184C138.914 145.924 136.81 150.996 136.804 156.287V315.909H156.757Z" fill="#5185AA"/>
</svg>
